<svg width="23" height="27" viewBox="0 0 23 27" fill="none" xmlns="http://www.w3.org/2000/svg">
<path d="M3.69485 4.32254C3.69485 2.28491 5.34668 0.633087 7.3843 0.633087H14.7632C16.8009 0.633087 18.4527 2.28491 18.4527 4.32254H19.375C20.9032 4.32254 22.1421 5.5614 22.1421 7.08962V8.93435C22.1421 11.2421 20.4461 13.1533 18.2337 13.4926C17.5058 16.4123 15.0386 18.6439 11.9962 19.0231V20.9251H14.7632C16.8009 20.9251 18.4527 22.5768 18.4527 24.6145V25.5433C18.4527 26.0527 18.0396 26.4657 17.5303 26.4657H4.61722C4.10781 26.4657 3.69485 26.0527 3.69485 25.5433V24.6145C3.69485 22.5768 5.34668 20.9251 7.3843 20.9251H10.1514V19.0233C7.10913 18.6439 4.64195 16.4125 3.91382 13.4929C1.70098 13.1543 0 11.2437 0 8.93435V7.08962C0 5.5614 1.23886 4.32254 2.76709 4.32254H3.69485ZM16.6079 4.32254C16.6079 3.30373 15.782 2.47781 14.7632 2.47781H7.3843C6.3655 2.47781 5.53958 3.30373 5.53958 4.32254V11.7014C5.53958 14.7579 8.01732 17.2356 11.0738 17.2356C14.0873 17.2356 16.5382 14.827 16.6064 11.8298L16.6079 4.32254ZM18.4527 11.5435C19.5274 11.1633 20.2974 10.1384 20.2974 8.93435V7.08962C20.2974 6.58022 19.8843 6.16726 19.375 6.16726H18.4527V11.5435ZM3.69485 6.16726H2.76709C2.25768 6.16726 1.84472 6.58022 1.84472 7.08962V8.93435C1.84472 10.1383 2.61761 11.1644 3.69485 11.5443V6.16726ZM5.53958 24.6145V24.621H16.6079V24.6145C16.6079 23.5957 15.782 22.7698 14.7632 22.7698H7.3843C6.3655 22.7698 5.53958 23.5957 5.53958 24.6145Z" fill="#A4A6B3"/>
</svg>
