<svg width="20" height="20" viewBox="0 0 20 20" fill="none" xmlns="http://www.w3.org/2000/svg">
<path d="M7.25438 10.09L10.0828 10.0888M10.0828 10.0888L12.9112 10.0876M10.0828 10.0888L10.0816 7.26035M10.0828 10.0888L10.084 12.9172M16.4494 16.4501C15.614 17.2862 14.6222 17.9495 13.5304 18.4023C12.4387 18.855 11.2684 19.0883 10.0865 19.0888C8.90465 19.0893 7.73423 18.857 6.64211 18.4051C5.54999 17.9533 4.55756 17.2908 3.72149 16.4554C2.88541 15.62 2.22206 14.6281 1.76932 13.5364C1.31657 12.4446 1.0833 11.2744 1.0828 10.0925C1.08231 8.91062 1.31462 7.7402 1.76646 6.64808C2.2183 5.55596 2.88082 4.56353 3.7162 3.72746C5.40332 2.03893 7.69212 1.08977 10.0791 1.08878C12.466 1.08779 14.7556 2.03505 16.4441 3.72217C18.1326 5.4093 19.0818 7.69809 19.0828 10.085C19.0838 12.472 18.1365 14.7616 16.4494 16.4501Z" stroke="#9FA2B4" stroke-width="1.5" stroke-linecap="round" stroke-linejoin="round"/>
</svg>
