<svg width="217" height="68" viewBox="0 0 217 68" fill="none" xmlns="http://www.w3.org/2000/svg">
<path d="M82.4385 33.4807H89.3789C92.1551 33.4807 93.7158 35.0249 93.7158 36.9542C93.7313 37.3901 93.6434 37.8234 93.4593 38.2188C93.2752 38.6141 93.0001 38.9603 92.6565 39.2289C92.3342 39.4585 91.9763 39.6335 91.5972 39.747V39.8466C92.0581 39.9421 92.4965 40.1247 92.889 40.3846C93.3227 40.6732 93.6735 41.0702 93.9065 41.5362C94.1395 42.0022 94.2466 42.521 94.2173 43.0412C94.2173 45.2561 92.4805 46.9929 89.2992 46.9929H82.4385V33.4807ZM88.9937 38.7939C90.1493 38.7939 90.7272 38.2161 90.7272 37.4457C90.7272 36.6753 90.1493 36.0942 88.9937 36.0942H85.3243V38.7939H88.9937ZM89.09 44.3861C90.5545 44.3861 91.212 43.7219 91.212 42.8419C91.212 41.9619 90.5478 41.3011 89.09 41.3011H85.3243V44.3861H89.09Z" fill="#4B1CA1"/>
<path d="M98.538 33.4807H104.612L108.178 46.9796H105.189L104.419 43.9909H98.7306L97.9602 46.9796H94.9715L98.538 33.4807ZM103.745 41.2911L102.397 36.1805H100.756L99.408 41.2911H103.745Z" fill="#4B1CA1"/>
<path d="M109.53 33.4807H114.448C118.785 33.4807 121.773 36.4694 121.773 40.2285C121.773 43.9876 118.785 46.9796 114.448 46.9796H109.53V33.4807ZM114.448 44.2798C117.147 44.2798 118.785 42.6394 118.785 40.2285C118.785 37.8176 117.147 36.1805 114.448 36.1805H112.422V44.2798H114.448Z" fill="#4B1CA1"/>
<path d="M123.703 33.4807H128.039L131.317 41.1948H131.802L135.079 33.4807H139.416V46.9796H136.524V38.3988L136.717 36.662H136.524L133.439 43.8946H129.68L126.595 36.662H126.402L126.595 38.3988V46.9796H123.703V33.4807Z" fill="#4B1CA1"/>
<path d="M143.275 29.144C143.557 29.1628 143.826 29.2634 144.052 29.4334C144.277 29.6035 144.447 29.8356 144.542 30.1013C144.637 30.3669 144.652 30.6545 144.586 30.9287C144.52 31.203 144.375 31.4519 144.169 31.6448C143.963 31.8378 143.706 31.9664 143.428 32.0149C143.15 32.0634 142.864 32.0297 142.605 31.9178C142.346 31.806 142.125 31.6209 141.97 31.3853C141.815 31.1497 141.732 30.874 141.731 30.5918C141.746 30.1958 141.916 29.8215 142.205 29.5504C142.494 29.2793 142.879 29.1332 143.275 29.144ZM141.827 33.4809H144.72V46.9798H141.827V33.4809Z" fill="#4B1CA1"/>
<path d="M147.227 33.4807H150.986L156.289 43.0246H156.482L156.289 41.3874V33.4807H159.182V46.9796H155.423L150.119 37.4357H149.927L150.119 39.0729V46.9796H147.227V33.4807Z" fill="#4B1CA1"/>
<path d="M160.629 33.4807H172.195V36.1805H167.858V46.9796H164.966V36.1805H160.629V33.4807Z" fill="#4B1CA1"/>
<path d="M180.487 33.0957C184.731 33.0957 187.912 36.277 187.912 40.232C187.912 44.187 184.731 47.365 180.487 47.365C176.243 47.365 173.065 44.1837 173.065 40.232C173.065 36.2803 176.247 33.0957 180.487 33.0957ZM180.487 44.6652C182.994 44.6652 184.827 42.8322 184.827 40.232C184.827 37.6319 182.994 35.7955 180.487 35.7955C177.98 35.7955 176.15 37.6285 176.15 40.232C176.15 42.8355 177.983 44.6652 180.487 44.6652Z" fill="#4B1CA1"/>
<path d="M189.842 33.4807H193.601L198.904 43.0246H199.097L198.904 41.3874V33.4807H201.793V46.9796H198.034L192.731 37.4357H192.542L192.731 39.0729V46.9796H189.842V33.4807Z" fill="#4B1CA1"/>
<path d="M84.8498 53.5551H90.9235L94.4899 67.0506H91.5013L90.7275 64.0619H85.0424L84.2687 67.0506H81.28L84.8498 53.5551ZM90.0534 61.3655L88.7052 56.2548H87.0647L85.7165 61.3655H90.0534Z" fill="#4B1CA1"/>
<path d="M95.2601 64.3672L102.396 56.4605V56.2679H95.4527V53.5681H106.156V56.2679L99.0192 64.1746V64.3672H106.348V67.0637H95.2601V64.3672Z" fill="#4B1CA1"/>
<path d="M124.051 53.5551H130.414C133.711 53.5551 135.727 55.5807 135.727 58.0879C135.727 60.1866 134.375 61.578 132.642 62.2322L135.727 67.0539H132.449L129.653 62.6174H126.953V67.0539H124.061L124.051 53.5551ZM130.317 59.9176C131.958 59.9176 132.728 59.1671 132.728 58.0879C132.728 57.0087 131.958 56.2548 130.317 56.2548H126.943V59.9077L130.317 59.9176Z" fill="#4B1CA1"/>
<path d="M137.646 53.5551H144.587C147.363 53.5551 148.927 55.0992 148.927 57.0252C148.943 57.4615 148.855 57.8953 148.67 58.2908C148.485 58.6863 148.209 59.0322 147.864 59.3C147.542 59.5306 147.184 59.7067 146.805 59.8213V59.9176C147.266 60.013 147.705 60.1968 148.097 60.4589C148.531 60.7475 148.881 61.1445 149.114 61.6105C149.347 62.0765 149.454 62.5953 149.425 63.1155C149.425 65.3338 147.688 67.0705 144.507 67.0705H137.663L137.646 53.5551ZM144.202 58.8683C145.36 58.8683 145.938 58.2905 145.938 57.5167C145.938 56.743 145.36 56.1685 144.202 56.1685H140.549V58.8683H144.202ZM144.298 64.4604C145.762 64.4604 146.42 63.7963 146.42 62.9163C146.42 62.0363 145.756 61.3754 144.298 61.3754H140.539V64.4604H144.298Z" fill="#4B1CA1"/>
<path d="M153.732 53.5551H159.806L163.372 67.0539H160.384L159.613 64.0653H153.925L153.154 67.0539H150.166L153.732 53.5551ZM158.939 61.3655L157.591 56.2548H155.95L154.602 61.3655H158.939Z" fill="#4B1CA1"/>
<path d="M165.604 53.545L168.845 59.1372H169.114L172.355 53.545H175.536L170.425 62.1259V67.0439H167.533V62.1259L162.422 53.545H165.604Z" fill="#4B1CA1"/>
<path d="M183.154 53.1597C186.046 53.1597 187.78 54.4515 188.743 55.7233C189.328 56.4798 189.754 57.3459 189.998 58.2703H187.009C186.832 57.8261 186.57 57.4203 186.239 57.0748C185.836 56.6711 185.354 56.3549 184.823 56.1457C184.292 55.9366 183.724 55.8392 183.154 55.8594C180.647 55.8594 178.814 57.6925 178.814 60.2926C178.814 63.0124 180.531 64.7292 183.154 64.7292C183.748 64.7542 184.341 64.6458 184.888 64.4119C185.435 64.178 185.923 63.8246 186.315 63.3776C186.662 62.9823 186.93 62.5248 187.106 62.0294H190.094C189.822 63.0035 189.371 63.9188 188.766 64.7292C188.117 65.5971 187.269 66.2956 186.292 66.7656C185.316 67.2356 184.24 67.4632 183.157 67.429C178.817 67.429 175.732 64.344 175.732 60.2926C175.732 56.2413 178.817 53.1597 183.157 53.1597" fill="#4B1CA1"/>
<path d="M193.95 53.5551H200.024L203.593 67.0539H200.605L199.831 64.0653H194.143L193.372 67.0539H190.383L193.95 53.5551ZM199.157 61.3655L197.809 56.2548H196.168L194.82 61.3655H199.157Z" fill="#4B1CA1"/>
<path d="M204.941 53.545H208.7L214.003 63.0889H214.196L214.003 61.4518V53.545H216.896V67.0439H213.137L207.834 57.5001H207.641L207.834 59.1372V67.0439H204.941V53.545Z" fill="#4B1CA1"/>
<path d="M114.879 53.183C113.385 53.1769 111.925 53.6341 110.701 54.4916C109.477 55.3491 108.549 56.5648 108.045 57.9715H111.053C111.45 57.3148 112.012 56.7737 112.684 56.4019C113.355 56.0302 114.112 55.8409 114.879 55.8528C117.087 55.8528 118.628 57.397 118.973 59.4359H107.683C107.666 59.729 107.666 60.0228 107.683 60.3159C107.679 61.259 107.863 62.1933 108.225 63.0645C108.586 63.9357 109.117 64.7262 109.786 65.3901C110.456 66.054 111.251 66.578 112.126 66.9315C113 67.2849 113.936 67.4608 114.879 67.4489C116.773 67.4489 118.589 66.6967 119.927 65.3578C121.266 64.0188 122.019 62.2029 122.019 60.3093C122.019 58.4158 121.266 56.5998 119.927 55.2608C118.589 53.9219 116.773 53.1697 114.879 53.1697V53.183ZM114.879 64.7658C113.91 64.7758 112.968 64.4506 112.211 63.8455C111.455 63.2403 110.931 62.3923 110.728 61.445H118.92C118.492 63.3544 116.991 64.7658 114.879 64.7658Z" fill="#4B1CA1"/>
<path d="M17.2987 0.967529L47.0261 1.06715C50.679 1.16013 54.1226 0.884509 57.3769 1.33945C60.3656 1.80436 63.3045 2.70096 65.6788 4.88934C66.9735 6.12665 67.8941 7.70315 68.3354 9.43878C68.807 11.4478 68.7173 13.6462 68.362 15.7283C67.5185 20.2346 65.732 24.6213 63.5867 29.267C61.0862 34.5138 50.8185 55.3283 50.8185 55.3283C49.0751 58.576 45.3591 58.1609 44.24 56.1552C43.1209 54.1495 45.1233 51.5626 46.963 48.5739C47.0859 48.3713 60.7475 29.4397 62.0326 27.2281C64.3406 23.1435 66.2932 19.1918 67.3259 15.197C67.7709 13.3772 68.1063 11.4844 67.6846 9.76089C67.5256 8.93117 67.204 8.14113 66.7382 7.43636C66.3024 6.83484 65.8073 6.27859 65.2604 5.77598C63.0123 3.86987 60.173 3.11938 57.2441 2.95998C54.1226 2.7873 50.6292 3.4116 46.8335 3.7802L16.4619 7.20723C14.1374 7.46624 11.9324 6.41025 11.9324 4.451C11.9324 1.7147 14.8414 1.13024 16.9866 1.00073C17.0895 1.00073 17.1991 1.00073 17.2987 1.00073" fill="#07A7E2"/>
<path d="M5.32056 11.3248L43.31 6.17103L55.2481 4.55382L60.1961 3.86309C61.7521 3.65934 63.3341 3.89636 64.7621 4.54718C66.1502 5.19141 67.7508 6.55623 68.2522 8.63171C68.7537 10.7072 68.6275 12.4639 67.4851 15.24C66.4429 17.6194 65.1148 19.8631 63.5301 21.9214L58.881 27.9652L35.2406 58.1542C32.7899 61.2524 28.6256 60.0835 27.8585 57.5133C26.9951 54.6242 30.0436 52.3462 32.5076 49.6065C32.6172 49.487 57.5262 24.7573 57.5262 24.7573L62.6368 19.2448C64.1244 17.7622 65.3754 16.0598 66.3461 14.1973C66.9046 13.098 67.2836 11.9163 67.4685 10.6972C67.5416 10.0895 67.4984 8.51548 66.7313 7.41963C66.1601 6.60273 65.3532 5.71941 64.5629 5.42718C61.8199 4.27156 58.7549 5.61646 55.381 6.29722L43.2237 9.19955L4.54681 18.4313C1.73745 19.0954 -0.102242 17.4184 0.0272676 14.8648C0.146815 12.6233 2.40161 11.8761 5.0084 11.3879C5.10803 11.368 5.22093 11.3514 5.31723 11.3381" fill="#4B1CA1"/>
<path d="M36.4661 13.8221L50.2008 9.91022L60.5383 6.96803C61.9264 6.63595 63.1949 6.12788 64.5597 5.89543C65.0206 5.82085 65.4926 5.85529 65.9378 5.996C66.383 6.13671 66.789 6.37978 67.1234 6.7057C69.3981 9.09 65.6556 13.0749 64.49 14.2471C63.2015 15.5754 61.8334 16.9037 60.3523 18.2686L49.5765 28.4334L24.0531 53.1199L23.6015 53.5549C20.1878 56.7927 15.8973 55.3515 15.2996 52.1403C14.5225 48.0026 19.062 45.7113 22.3695 42.9916C22.5654 42.8289 38.3091 32.2257 48.371 24.6046L59.5587 16.1765L63.3875 13.2575C64.7158 12.2348 66.3197 10.85 66.8676 9.36562C67.0112 9.02379 67.058 8.6491 67.0029 8.28248C66.9478 7.91586 66.7931 7.57143 66.5555 7.28683C66.335 7.03733 66.0549 6.84771 65.7414 6.73564C65.4278 6.62358 65.091 6.59271 64.7623 6.64591C64.1233 6.73639 63.5005 6.91753 62.9126 7.18388L60.7508 8.06056L50.4565 12.2447L36.4694 17.9265C30.6249 20.3374 26.0124 22.7018 18.275 25.7635C17.7793 25.9578 17.2461 26.0373 16.7153 25.9959C16.1845 25.9545 15.67 25.7934 15.2105 25.5246C14.7509 25.2558 14.3582 24.8864 14.0619 24.4441C13.7656 24.0017 13.5734 23.498 13.4998 22.9708C13.0216 20.2643 15.904 19.2249 18.4078 18.5741C20.8021 17.9531 30.8374 15.3928 36.4761 13.8221" fill="#9325C8"/>
</svg>
