<svg width="19" height="20" viewBox="0 0 19 20" fill="none" xmlns="http://www.w3.org/2000/svg">
<path d="M5.72388 6.3317V8.68015H5.99724M5.99724 8.68015C6.30904 7.90898 6.86789 7.26305 7.58621 6.8436C8.30453 6.42414 9.14172 6.25487 9.96658 6.3623C10.7914 6.46973 11.5573 6.8478 12.1443 7.43725C12.7312 8.0267 13.1059 8.79422 13.2098 9.61953M5.99724 8.68015H8.07233M13.2389 13.8467V11.4983H12.966M12.966 11.4983C12.6538 12.269 12.0948 12.9144 11.3765 13.3335C10.6583 13.7526 9.82133 13.9217 8.99673 13.8143C8.17212 13.7069 7.4064 13.3291 6.81945 12.74C6.23249 12.151 5.85744 11.3839 5.753 10.5589M12.966 11.4983H10.8905" stroke="#9FA2B4" stroke-width="1.4" stroke-linecap="round" stroke-linejoin="round"/>
<circle cx="9.48145" cy="10.0888" r="8.4718" stroke="#9FA2B4" stroke-width="1.5" stroke-linecap="round" stroke-linejoin="round"/>
</svg>
