<svg width="24" height="23" viewBox="0 0 24 23" fill="none" xmlns="http://www.w3.org/2000/svg">
<path d="M19.3652 0.651733H3.9887C2.93083 0.651733 1.91629 1.07898 1.16826 1.83948C0.420237 2.59998 0 3.63144 0 4.70696L0 17.9473C0 19.0228 0.420237 20.0542 1.16826 20.8147C1.91629 21.5752 2.93083 22.0025 3.9887 22.0025H19.3652C20.423 22.0025 21.4376 21.5752 22.1856 20.8147C22.9336 20.0542 23.3539 19.0228 23.3539 17.9473V4.70696C23.3539 3.63144 22.9336 2.59998 22.1856 1.83948C21.4376 1.07898 20.423 0.651733 19.3652 0.651733V0.651733ZM1.84145 17.9473V4.70696C1.84665 4.12961 2.07455 3.57741 2.47612 3.16914C2.87768 2.76088 3.42083 2.52918 3.9887 2.52389H19.3652C19.9353 2.52565 20.4819 2.75579 20.8863 3.16443C21.2907 3.57307 21.5205 4.12728 21.5257 4.70696V15.9805L16.8722 12.6011C16.21 12.1143 15.3921 11.8983 14.5806 11.996C13.7691 12.0936 13.0234 12.4978 12.4913 13.1283L6.57471 20.1438H3.9887C3.41854 20.1385 2.87341 19.9049 2.47148 19.4938C2.06954 19.0826 1.84318 18.5269 1.84145 17.9473V17.9473ZM19.3652 20.1438H9.00782L13.9206 14.3516C14.1528 14.0778 14.4775 13.9024 14.8306 13.8598C15.1838 13.8173 15.5398 13.9108 15.8285 14.1218L21.4925 18.2649C21.419 18.7857 21.1636 19.2621 20.773 19.6071C20.3823 19.9522 19.8826 20.1427 19.3652 20.1438V20.1438Z" fill="#A4A6B3"/>
<path d="M7.04005 10.418C8.11212 10.418 8.98122 9.53446 8.98122 8.4445C8.98122 7.35455 8.11212 6.47096 7.04005 6.47096C5.96797 6.47096 5.09888 7.35455 5.09888 8.4445C5.09888 9.53446 5.96797 10.418 7.04005 10.418Z" fill="#A4A6B3"/>
</svg>
