<svg width="9" height="10" viewBox="0 0 9 10" fill="none" xmlns="http://www.w3.org/2000/svg">
<path d="M7.28482 1.20317C7.36141 1.12387 7.45302 1.06062 7.55431 1.01711C7.6556 0.973599 7.76455 0.950696 7.87479 0.949738C7.98502 0.94878 8.09435 0.969787 8.19638 1.01153C8.29842 1.05328 8.39111 1.11492 8.46907 1.19288C8.54702 1.27083 8.60867 1.36353 8.65041 1.46556C8.69216 1.56759 8.71316 1.67692 8.71221 1.78716C8.71125 1.8974 8.68834 2.00634 8.64483 2.10763C8.60132 2.20892 8.53807 2.30054 8.45878 2.37712L8.12959 2.70631L6.95563 1.53236L7.28482 1.20317ZM6.36866 2.11933L2.89038 5.59761V6.77156H4.06433L7.54303 3.29329L6.36824 2.11933H6.36866Z" fill="#7E6CF1"/>
<path d="M5.34069 1.28922H3.27749H2.21429C1.66201 1.28922 1.21429 1.73693 1.21429 2.28922V7.5392C1.21429 8.09149 1.66201 8.5392 2.21429 8.5392H6.75965C7.31193 8.5392 7.75965 8.09149 7.75965 7.5392V4.7505" stroke="#7E6CF1" stroke-linecap="round"/>
</svg>
