<svg width="147" height="47" viewBox="0 0 147 47" fill="none" xmlns="http://www.w3.org/2000/svg">
<path d="M56.2214 23.4769H60.9027C62.7753 23.4769 63.828 24.5184 63.828 25.8198C63.8384 26.1138 63.7791 26.4061 63.655 26.6727C63.5308 26.9394 63.3452 27.1729 63.1135 27.3541C62.896 27.5089 62.6547 27.627 62.399 27.7035V27.7707C62.7098 27.8351 63.0056 27.9583 63.2703 28.1336C63.5628 28.3282 63.7994 28.596 63.9566 28.9103C64.1137 29.2247 64.186 29.5746 64.1662 29.9255C64.1662 31.4195 62.9948 32.5909 60.849 32.5909H56.2214V23.4769ZM60.6429 27.0607C61.4224 27.0607 61.8121 26.6709 61.8121 26.1513C61.8121 25.6316 61.4224 25.2397 60.6429 25.2397H58.1678V27.0607H60.6429ZM60.7079 30.8326C61.6956 30.8326 62.1391 30.3846 62.1391 29.7911C62.1391 29.1975 61.6912 28.7518 60.7079 28.7518H58.1678V30.8326H60.7079Z" fill="white"/>
<path d="M67.0806 23.4769H71.1774L73.583 32.582H71.5671L71.0474 30.5661H67.2105L66.6909 32.582H64.675L67.0806 23.4769ZM70.5927 28.7451L69.6833 25.2979H68.5768L67.6675 28.7451H70.5927Z" fill="white"/>
<path d="M74.4945 23.4769H77.8118C80.737 23.4769 82.7529 25.4928 82.7529 28.0283C82.7529 30.5638 80.737 32.582 77.8118 32.582H74.4945V23.4769ZM77.8118 30.7609C79.6328 30.7609 80.737 29.6544 80.737 28.0283C80.737 26.4021 79.6328 25.2979 77.8118 25.2979H76.4454V30.7609H77.8118Z" fill="white"/>
<path d="M84.0543 23.4769H86.9795L89.1903 28.6801H89.5173L91.7281 23.4769H94.6534V32.582H92.7024V26.7941L92.8323 25.6227H92.7024L90.6216 30.5011H88.086L86.0052 25.6227H85.8753L86.0052 26.7941V32.582H84.0543V23.4769Z" fill="white"/>
<path d="M97.2561 20.5516C97.446 20.5643 97.628 20.6322 97.7798 20.7469C97.9317 20.8616 98.0467 21.0181 98.1107 21.1973C98.1748 21.3765 98.1851 21.5705 98.1404 21.7555C98.0957 21.9404 97.9979 22.1083 97.8591 22.2385C97.7203 22.3686 97.5465 22.4554 97.359 22.4881C97.1715 22.5208 96.9786 22.4981 96.8039 22.4226C96.6292 22.3472 96.4804 22.2223 96.3757 22.0634C96.271 21.9045 96.215 21.7185 96.2145 21.5282C96.2245 21.2611 96.3394 21.0086 96.5345 20.8258C96.7295 20.6429 96.9888 20.5444 97.2561 20.5516ZM96.2795 23.4769H98.2304V32.582H96.2795V23.4769Z" fill="white"/>
<path d="M99.9217 23.4769H102.457L106.034 29.9143H106.164L106.034 28.81V23.4769H107.985V32.582H105.45L101.873 26.1446H101.743L101.873 27.2488V32.582H99.9217V23.4769Z" fill="white"/>
<path d="M108.961 23.4769H116.763V25.2979H113.838V32.582H111.887V25.2979H108.961V23.4769Z" fill="white"/>
<path d="M122.356 23.2171C125.218 23.2171 127.364 25.3629 127.364 28.0306C127.364 30.6983 125.218 32.8418 122.356 32.8418C119.493 32.8418 117.35 30.696 117.35 28.0306C117.35 25.3651 119.496 23.2171 122.356 23.2171ZM122.356 31.0208C124.047 31.0208 125.283 29.7844 125.283 28.0306C125.283 26.2768 124.047 25.0381 122.356 25.0381C120.665 25.0381 119.431 26.2745 119.431 28.0306C119.431 29.7867 120.667 31.0208 122.356 31.0208Z" fill="white"/>
<path d="M128.666 23.4769H131.201L134.778 29.9143H134.908L134.778 28.81V23.4769H136.727V32.582H134.192L130.614 26.1446H130.487L130.614 27.2488V32.582H128.666V23.4769Z" fill="white"/>
<path d="M57.8478 37.017H61.9445L64.3502 46.1198H62.3343L61.8124 44.1039H57.9777L57.4558 46.1198H55.4399L57.8478 37.017ZM61.3577 42.2852L60.4483 38.838H59.3418L58.4324 42.2852H61.3577Z" fill="white"/>
<path d="M64.8696 44.31L69.6831 38.9769V38.847H64.9995V37.0259H72.2187V38.847L67.4052 44.1801V44.31H72.3486V46.1288H64.8696V44.31Z" fill="white"/>
<path d="M84.2894 37.017H88.581C90.8052 37.017 92.1648 38.3833 92.1648 40.0744C92.1648 41.49 91.2531 42.4285 90.0839 42.8698L92.1648 46.1221H89.954L88.068 43.1296H86.247V46.1221H84.2961L84.2894 37.017ZM88.516 41.3086C89.6225 41.3086 90.1422 40.8024 90.1422 40.0744C90.1422 39.3464 89.6225 38.838 88.516 38.838H86.2403V41.3018L88.516 41.3086Z" fill="white"/>
<path d="M93.4595 37.017H98.1408C100.013 37.017 101.068 38.0585 101.068 39.3576C101.079 39.6519 101.02 39.9445 100.895 40.2113C100.77 40.478 100.584 40.7114 100.352 40.8919C100.134 41.0475 99.8929 41.1663 99.637 41.2436V41.3086C99.9483 41.3729 100.244 41.4969 100.508 41.6737C100.801 41.8683 101.038 42.1361 101.195 42.4504C101.352 42.7648 101.424 43.1147 101.404 43.4656C101.404 44.9618 100.233 46.1333 98.087 46.1333H93.4707L93.4595 37.017ZM97.881 40.6008C98.6627 40.6008 99.0524 40.211 99.0524 39.6891C99.0524 39.1672 98.6627 38.7797 97.881 38.7797H95.4171V40.6008H97.881ZM97.9459 44.3727C98.9337 44.3727 99.3772 43.9247 99.3772 43.3312C99.3772 42.7376 98.9292 42.2919 97.9459 42.2919H95.4104V44.3727H97.9459Z" fill="white"/>
<path d="M104.309 37.017H108.406L110.812 46.1221H108.796L108.276 44.1062H104.439L103.92 46.1221H101.904L104.309 37.017ZM107.822 42.2852L106.912 38.838H105.806L104.896 42.2852H107.822Z" fill="white"/>
<path d="M112.317 37.0103L114.503 40.7822H114.684L116.871 37.0103H119.016L115.569 42.7981V46.1154H113.618V42.7981L110.171 37.0103H112.317Z" fill="white"/>
<path d="M124.155 36.7504C126.106 36.7504 127.275 37.6217 127.924 38.4796C128.319 38.9898 128.607 39.574 128.771 40.1976H126.755C126.635 39.898 126.459 39.6242 126.236 39.3912C125.964 39.1189 125.639 38.9056 125.281 38.7646C124.922 38.6235 124.539 38.5578 124.155 38.5714C122.464 38.5714 121.227 39.8079 121.227 41.5617C121.227 43.3961 122.385 44.5542 124.155 44.5542C124.556 44.571 124.955 44.4979 125.324 44.3401C125.693 44.1824 126.022 43.944 126.287 43.6425C126.521 43.3759 126.702 43.0673 126.82 42.7331H128.836C128.652 43.3902 128.348 44.0075 127.94 44.5542C127.502 45.1395 126.93 45.6107 126.271 45.9277C125.613 46.2447 124.887 46.3982 124.157 46.3752C121.229 46.3752 119.149 44.2943 119.149 41.5617C119.149 38.829 121.229 36.7504 124.157 36.7504" fill="white"/>
<path d="M131.437 37.017H135.533L137.941 46.1221H135.925L135.403 44.1062H131.567L131.047 46.1221H129.031L131.437 37.017ZM134.949 42.2852L134.039 38.838H132.933L132.023 42.2852H134.949Z" fill="white"/>
<path d="M138.85 37.0103H141.386L144.963 43.4477H145.093L144.963 42.3434V37.0103H146.914V46.1154H144.378L140.801 39.678H140.671L140.801 40.7822V46.1154H138.85V37.0103Z" fill="white"/>
<path d="M78.1027 36.766C77.0948 36.7619 76.1103 37.0703 75.2848 37.6487C74.4593 38.2271 73.8334 39.0471 73.4931 39.9959H75.5224C75.7901 39.553 76.1692 39.188 76.622 38.9373C77.0747 38.6865 77.5853 38.5588 78.1027 38.5669C79.5922 38.5669 80.6315 39.6084 80.8645 40.9837H73.2489C73.2377 41.1814 73.2377 41.3796 73.2489 41.5773C73.2465 42.2134 73.3707 42.8436 73.6143 43.4312C73.8579 44.0188 74.216 44.5521 74.6678 44.9999C75.1195 45.4477 75.6559 45.8011 76.2457 46.0395C76.8354 46.2779 77.4667 46.3966 78.1027 46.3885C79.3799 46.3885 80.6048 45.8812 81.508 44.978C82.4111 44.0749 82.9185 42.85 82.9185 41.5728C82.9185 40.2956 82.4111 39.0707 81.508 38.1676C80.6048 37.2644 79.3799 36.7571 78.1027 36.7571V36.766ZM78.1027 44.5787C77.4493 44.5855 76.8137 44.3662 76.3034 43.958C75.7932 43.5498 75.4397 42.9778 75.3029 42.3388H80.8286C80.5397 43.6268 79.5273 44.5787 78.1027 44.5787Z" fill="white"/>
<path d="M11.7916 0.962097L32.0782 1.03156C34.571 1.09639 36.921 0.904212 39.1419 1.22142C41.1814 1.54557 43.1869 2.17072 44.8072 3.69656C45.6908 4.55926 46.319 5.65846 46.6202 6.86862C46.942 8.26942 46.8808 9.8022 46.6383 11.2539C46.0627 14.3959 44.8435 17.4545 43.3796 20.6937C41.6731 24.352 34.6662 38.8648 34.6662 38.8648C33.4765 41.1292 30.9406 40.8398 30.1769 39.4413C29.4133 38.0429 30.7797 36.2392 32.0352 34.1553C32.119 34.0141 41.442 20.8141 42.319 19.2721C43.894 16.4242 45.2265 13.6689 45.9313 10.8835C46.2349 9.61465 46.4638 8.29489 46.176 7.09321C46.0675 6.51469 45.848 5.96385 45.5302 5.47245C45.2328 5.05304 44.8949 4.6652 44.5217 4.31476C42.9875 2.98573 41.05 2.46246 39.0512 2.35132C36.921 2.23092 34.537 2.66621 31.9468 2.92321L11.2206 5.31268C9.63425 5.49328 8.12952 4.757 8.12952 3.39092C8.12952 1.48305 10.1147 1.07554 11.5786 0.985245C11.6489 0.985245 11.7236 0.985245 11.7916 0.985245" fill="#07A7E2"/>
<path d="M3.61761 8.18397L29.5424 4.5905L37.6893 3.46292L41.0658 2.98131C42.1277 2.83924 43.2073 3.00451 44.1818 3.45829C45.1291 3.90747 46.2213 4.85909 46.5635 6.3062C46.9057 7.75331 46.8196 8.97814 46.0401 10.9138C45.3288 12.5728 44.4225 14.1372 43.3411 15.5723L40.1684 19.7863L24.0357 40.8354C22.3632 42.9956 19.5215 42.1806 18.998 40.3885C18.4088 38.3742 20.4891 36.7858 22.1706 34.8756C22.2454 34.7923 39.2438 17.5497 39.2438 17.5497L42.7315 13.7061C43.7466 12.6724 44.6003 11.4854 45.2627 10.1868C45.6439 9.42028 45.9025 8.59638 46.0287 7.74636C46.0786 7.32265 46.0491 6.22516 45.5256 5.46109C45.1359 4.8915 44.5852 4.27561 44.0458 4.07186C42.174 3.26611 40.0823 4.20384 37.7799 4.67849L29.4835 6.70213L3.0896 13.1389C1.17243 13.602 -0.0830195 12.4327 0.00536052 10.6522C0.0869421 9.08928 1.62566 8.56832 3.40459 8.22796C3.47258 8.21407 3.54963 8.20249 3.61535 8.19323" fill="#4B1CA1"/>
<path d="M24.872 9.9249L34.2448 7.19738L41.2993 5.14596C42.2466 4.91442 43.1123 4.56017 44.0437 4.39809C44.3582 4.3461 44.6803 4.37011 44.9841 4.46822C45.2879 4.56633 45.565 4.7358 45.7931 4.96305C47.3455 6.62549 44.7915 9.40394 43.9961 10.2213C43.1168 11.1474 42.1831 12.0736 41.1724 13.0252L33.8188 20.1126L16.4011 37.3251L16.0929 37.6284C13.7633 39.8859 10.8354 38.881 10.4275 36.642C9.89723 33.7571 12.9951 32.1595 15.2521 30.2632C15.3859 30.1497 26.1297 22.7567 32.9961 17.4429L40.6308 11.5665L43.2437 9.53128C44.1502 8.81814 45.2447 7.85263 45.6186 6.81766C45.7166 6.57932 45.7485 6.31807 45.7109 6.06245C45.6734 5.80683 45.5677 5.56668 45.4056 5.36824C45.2551 5.19428 45.064 5.06206 44.85 4.98393C44.6361 4.90579 44.4062 4.88427 44.1819 4.92136C43.7458 4.98445 43.3208 5.11075 42.9197 5.29645L41.4444 5.90772L34.4193 8.82509L24.8743 12.7867C20.8858 14.4677 17.7381 16.1162 12.458 18.251C12.1197 18.3865 11.7558 18.4418 11.3936 18.413C11.0314 18.3841 10.6803 18.2718 10.3667 18.0844C10.0531 17.897 9.78508 17.6394 9.58289 17.331C9.38069 17.0226 9.24953 16.6714 9.19926 16.3038C8.87293 14.4167 10.8399 13.692 12.5486 13.2382C14.1825 12.8052 21.0309 11.0201 24.8788 9.9249" fill="#9325C8"/>
</svg>
