<svg width="24" height="24" viewBox="0 0 24 24" fill="none" xmlns="http://www.w3.org/2000/svg">
<path d="M5.11822 7.11572C4.65331 7.11572 4.27643 7.49261 4.27643 7.95751C4.27643 8.42242 4.65331 8.7993 5.11822 8.7993H10.7301C11.195 8.7993 11.5719 8.42242 11.5719 7.95751C11.5719 7.49261 11.195 7.11572 10.7301 7.11572H5.11822ZM4.27643 11.8858C4.27643 11.421 4.65331 11.0441 5.11822 11.0441H13.5361C14.001 11.0441 14.3779 11.421 14.3779 11.8858C14.3779 12.3507 14.001 12.7276 13.5361 12.7276H5.11822C4.65331 12.7276 4.27643 12.3507 4.27643 11.8858ZM5.11822 14.9724C4.65331 14.9724 4.27643 15.3493 4.27643 15.8142C4.27643 16.2791 4.65331 16.656 5.11822 16.656H13.5361C14.001 16.656 14.3779 16.2791 14.3779 15.8142C14.3779 15.3493 14.001 14.9724 13.5361 14.9724H5.11822Z" fill="#A4A6B3"/>
<path fill-rule="evenodd" clip-rule="evenodd" d="M7.5145 0.909852H10.4437C11.9786 0.909829 13.2158 0.909807 14.1889 1.04063C15.1992 1.17646 16.0497 1.46704 16.7254 2.14262C17.401 2.81821 17.6916 3.66883 17.8274 4.67909C17.9581 5.65217 17.9581 6.88939 17.9581 8.42435V11.0132C18.359 11.0163 18.7091 11.0243 19.016 11.0453C19.5285 11.0802 19.9816 11.154 20.4106 11.3317C21.4419 11.7589 22.2612 12.5783 22.6885 13.6095C22.8662 14.0386 22.9399 14.4917 22.9748 15.0042C23.0088 15.5025 23.0088 16.1148 23.0088 16.8738V20.5516C23.0088 22.4112 21.5014 23.9187 19.6417 23.9187C19.5472 23.9187 19.4536 23.9148 19.3611 23.9071V23.9187H7.5145C5.97954 23.9187 4.74232 23.9187 3.76924 23.7879C2.75897 23.6521 1.90835 23.3615 1.23277 22.686C0.557185 22.0103 0.266611 21.1598 0.130781 20.1495C-4.42538e-05 19.1764 -2.18596e-05 17.9392 5.88008e-07 16.4042V8.42435C-2.18596e-05 6.88939 -4.42538e-05 5.65216 0.130781 4.67909C0.266611 3.66883 0.557185 2.81821 1.23277 2.14262C1.90835 1.46704 2.75897 1.17646 3.76924 1.04063C4.7423 0.909807 5.97954 0.909829 7.5145 0.909852ZM17.9581 12.6969C18.334 12.6998 18.6396 12.7071 18.9014 12.725C19.3281 12.754 19.5766 12.8086 19.7663 12.8871C20.3852 13.1434 20.8768 13.6351 21.133 14.2539C21.2116 14.4435 21.2661 14.692 21.2952 15.1188C21.3248 15.553 21.3253 16.1078 21.3253 16.9038V20.5516C21.3253 21.4813 20.5715 22.2351 19.6417 22.2351C18.7119 22.2351 17.9581 21.4813 17.9581 20.5516V12.6969ZM16.2746 8.48594V20.5516C16.2746 21.1648 16.4385 21.7398 16.725 22.2351H7.57608C5.96501 22.2351 4.84137 22.2333 3.99357 22.1194C3.17 22.0086 2.73387 21.8062 2.42324 21.4955C2.11261 21.1848 1.91007 20.7488 1.79935 19.9251C1.68536 19.0773 1.68357 17.9537 1.68357 16.3426V8.48594C1.68357 6.87486 1.68536 5.75122 1.79935 4.90342C1.91007 4.07985 2.11261 3.64372 2.42324 3.33309C2.73387 3.02246 3.17 2.81992 3.99357 2.7092C4.84137 2.59521 5.96501 2.59343 7.57608 2.59343H10.382C11.9931 2.59343 13.1167 2.59521 13.9646 2.7092C14.7882 2.81992 15.2242 3.02246 15.5349 3.33309C15.8456 3.64372 16.0481 4.07985 16.1588 4.90342C16.2728 5.75122 16.2746 6.87486 16.2746 8.48594Z" fill="#A4A6B3"/>
</svg>
