<svg width="20" height="20" viewBox="0 0 20 20" fill="none" xmlns="http://www.w3.org/2000/svg">
<path d="M7.95325 12.0888L9.95325 10.0888M9.95325 10.0888L11.9532 8.08878M9.95325 10.0888L7.95325 8.08878M9.95325 10.0888L11.9532 12.0888M18.9532 10.0888C18.9532 11.2707 18.7205 12.441 18.2682 13.5329C17.8159 14.6249 17.1529 15.617 16.3172 16.4527C15.4815 17.2885 14.4893 17.9514 13.3974 18.4037C12.3055 18.856 11.1351 19.0888 9.95325 19.0888C8.77135 19.0888 7.60103 18.856 6.5091 18.4037C5.41717 17.9514 4.42501 17.2885 3.58929 16.4527C2.75356 15.617 2.09062 14.6249 1.63833 13.5329C1.18604 12.441 0.953247 11.2707 0.953247 10.0888C0.953247 7.70183 1.90146 5.41265 3.58929 3.72482C5.27711 2.03699 7.5663 1.08878 9.95325 1.08878C12.3402 1.08878 14.6294 2.03699 16.3172 3.72482C18.005 5.41265 18.9532 7.70183 18.9532 10.0888Z" stroke="#9FA2B4" stroke-width="1.5" stroke-linecap="round" stroke-linejoin="round"/>
</svg>
