<svg width="20" height="22" viewBox="0 0 20 22" fill="none" xmlns="http://www.w3.org/2000/svg">
<path d="M4.88133 15.0137C3.92402 15.0148 2.99997 14.6626 2.28622 14.0247C1.57247 13.3867 1.11921 12.5078 1.01327 11.5564C0.907326 10.6049 1.15616 9.64787 1.71209 8.86852C2.26802 8.08917 3.09196 7.54235 4.02606 7.3328C3.75579 6.07234 3.99731 4.75613 4.69749 3.67374C5.39767 2.59135 6.49915 1.83143 7.75962 1.56117C9.02008 1.2909 10.3363 1.53242 11.4187 2.2326C12.5011 2.93278 13.261 4.03426 13.5313 5.29473H13.6284C14.8336 5.29351 15.9961 5.74013 16.8905 6.54787C17.7848 7.35561 18.3471 8.46685 18.4682 9.66586C18.5893 10.8649 18.2606 12.0661 17.5459 13.0364C16.8311 14.0067 15.7814 14.6767 14.6003 14.9166M12.6565 12.098L9.74084 9.18233M9.74084 9.18233L6.82513 12.098M9.74084 9.18233V20.8452" stroke="#ACAFBF" stroke-width="1.9438" stroke-linecap="round" stroke-linejoin="round"/>
</svg>
